<?xml version="1.0" encoding="utf-8"?>
<!-- Generator: Adobe Illustrator 22.0.1, SVG Export Plug-In . SVG Version: 6.00 Build 0)  -->
<svg version="1.1" id="Capa_1" xmlns="http://www.w3.org/2000/svg" xmlns:xlink="http://www.w3.org/1999/xlink" x="0px" y="0px"
	 viewBox="0 0 768 768" style="enable-background:new 0 0 768 768;" xml:space="preserve">
<style type="text/css">
	.st0{fill:#D3683C;}
</style>
<path class="st0" d="M0.9,767.7V0h767.7v767.7H0.9z M713.2,229.3c-2.9-1.7-4.7-2.9-6.7-3.9c-44.5-21.5-90.6-34.4-140.8-29.9
	c-43.3,3.9-81.5,19.6-111.9,49.8c-37.7,37.4-53.4,85.3-54.7,137.6c-0.4,25.3,3.9,50.5,12.9,74.3c26.9,73.6,88.7,110.9,161.6,114.5
	c29.4,1.2,58.8-2.7,86.9-11.8c17.8-5.6,34.8-13.8,53-21.1l-57.5-130c-27.6,9.3-54.2,12.3-81.5,7.1c-18.5-3.5-33-17.5-33.4-32.5
	c-0.6-22.3,7.3-35.2,30.3-38c22.4-2.6,45.9-1,68.6,1.2c15.7,1.5,15.7,3.5,22.8-11.4c8-16.5,15.9-32.9,23.7-49.4
	C695.5,267.5,704,248.9,713.2,229.3z M354.2,487.9H239.8c-18.3,0-19.6-1.4-19.6-19.9c0-85.3,0-170.5,0-255.7c0-8.3-1.6-11.9-11-11.8
	c-38.5,0.6-77,0.6-115.5,0.1c-9.5,0-11.1,3.6-11.1,12c0.2,112.5,0.3,225.1,0.2,337.6c0,14.7,0.2,14.7,15,14.7
	c81.9,0,163.8,0,245.6,0c3.6,0,7.1-0.4,10.9-0.6L354.2,487.9L354.2,487.9z"/>
</svg>
